PathFileType	4	(X/Y/Z)	C:\Users\Biomechanik\SynologyDrive\AlexP\Athlete_03\Athlete_3_25_03_31\Deadlift_35kg_02\marker_experimental.trc
DataRate	CameraRate	NumFrames	NumMarkers	Units	OrigDataRate	OrigDataStartFrame	OrigNumFrames
200.000000	200.000000	4	55	mm	200.000000	1487	1983
Frame#	Time	BL			BR			GLAB			RFHD			LFHD			C7			T6			SPINMOL			SPINM2			SPINM3			T12			BELTOL			BELT2			BELT3			SACROL			SACR2			SACR3			LTHOL			LTH2			LTH3			LSHAOL			LSHA2			LSHA3			LHEE			LTOE			LM5			RTHOL			RTH2			RTH3			RSHAOL			RSHA2			RSHA3			RHEE			RTOE			RM5			STRN			XIPH			LACR			LUAOL			LUA2			LUA3			LLAOL			LLA2			LLA3			LWRR			LWRU			RACR			RUAOL			RUA2			RUA3			RLAOL			RLA2			RLA3			RWRR			RWRU			
		X1	Y1	Z1	X2	Y2	Z2	X3	Y3	Z3	X4	Y4	Z4	X5	Y5	Z5	X6	Y6	Z6	X7	Y7	Z7	X8	Y8	Z8	X9	Y9	Z9	X10	Y10	Z10	X11	Y11	Z11	X12	Y12	Z12	X13	Y13	Z13	X14	Y14	Z14	X15	Y15	Z15	X16	Y16	Z16	X17	Y17	Z17	X18	Y18	Z18	X19	Y19	Z19	X20	Y20	Z20	X21	Y21	Z21	X22	Y22	Z22	X23	Y23	Z23	X24	Y24	Z24	X25	Y25	Z25	X26	Y26	Z26	X27	Y27	Z27	X28	Y28	Z28	X29	Y29	Z29	X30	Y30	Z30	X31	Y31	Z31	X32	Y32	Z32	X33	Y33	Z33	X34	Y34	Z34	X35	Y35	Z35	X36	Y36	Z36	X37	Y37	Z37	X38	Y38	Z38	X39	Y39	Z39	X40	Y40	Z40	X41	Y41	Z41	X42	Y42	Z42	X43	Y43	Z43	X44	Y44	Z44	X45	Y45	Z45	X46	Y46	Z46	X47	Y47	Z47	X48	Y48	Z48	X49	Y49	Z49	X50	Y50	Z50	X51	Y51	Z51	X52	Y52	Z52	X53	Y53	Z53	X54	Y54	Z54	X55	Y55	Z55	

1488	7.435	2227.566162109375	265.040496826172	368.3063354492191	207.4090881347655	235.0869293212891	337.1849060058594	1182.79296875	976.9829101562501	649.9373168945315	1118.072143554687	1029.8837890625	645.9177246093752	1254.545288085937	1026.983764648438	647.272155761719	1192.560424804688	1058.772583007812	384.7510070800784	1199.5390625	990.9639282226564	225.578567504883	1222.468139648438	975.6818237304689	198.0398712158205	1173.732543945312	970.8308715820314	187.5454559326174	1211.88818359375	935.9810180664064	145.7927246093752	1213.346435546875	896.5615234375001	106.6565246582034	1230.875	896.4943237304689	69.66255950927757	1180.384155273438	891.7233886718751	67.13478088378928	1212.119018554688	855.4471435546876	21.2864513397219	1244.290405273438	765.1804809570314	-69.23828124999977	1192.953735351562	761.6181640625001	-67.75397491455057	1221.05517578125	709.1140747070314	-96.72624969482399	1429.077758789062	507.397918701172	160.7518768310549	1404.570922851562	434.8285217285157	177.5718231201174	1420.49755859375	471.5899047851564	208.8015747070315	1423.839965820312	287.5361328125001	270.4987792968753	1412.724731445312	244.8188476562501	203.9871063232424	1410.65478515625	230.5564422607423	251.6432037353518	1304.8671875	69.81826019287118	109.9906005859377	1308.215454101562	46.43078613281258	323.8106079101565	1411.621337890625	31.32467651367196	278.5455627441409	1009.66064453125	501.9596252441407	135.7300872802736	988.222900390625	521.0205078125001	210.801971435547	1010.020568847656	479.0607910156251	193.7795410156252	997.3703002929688	311.6584167480469	259.096649169922	1007.993347167969	234.7395477294922	269.908416748047	1011.978454589844	259.7632751464844	227.4073333740236	1126.830688476562	63.5495796203614	114.7390747070315	1104.145874023438	46.6010932922364	325.8526916503909	1006.490905761719	39.47805404663092	269.5407714843752	1196.345825195312	871.8930664062501	445.286071777344	1205.459594726562	758.5358886718751	350.0965576171877	1361.349975585938	946.3228149414064	426.6795654296877	1449.53662109375	798.5704345703126	411.1021118164065	1476.398559570312	739.6776733398439	399.8668518066409	1432.243774414062	737.1562500000001	425.6138610839847	1488.590942382812	533.7171630859376	395.5881652832034	1509.442138671875	480.576385498047	340.8176574707034	1491.3798828125	472.5785217285157	387.2467041015628	1493.693969726562	367.5849914550782	388.3321228027347	1420.852783203125	358.0120849609376	356.9006958007815	1037.577270507812	935.3689575195314	421.8035888671877	958.5092773437499	791.9309692382814	393.519500732422	965.7180175781249	728.7189331054689	406.0975646972658	924.9426879882811	737.5199584960938	375.1994628906252	921.2331542968749	515.78125	364.5480346679689	925.3071899414061	450.0722351074219	409.6123962402345	918.2872924804686	453.0004272460938	360.6151733398439	920.6828002929686	362.9165954589844	384.3273010253908	992.2545776367186	341.5187377929688	344.2865295410158	
1489	7.44	2227.5810546875	264.3139648437501	368.1611938476566	207.4151458740234	234.0814971923828	337.0882873535157	1182.684692382812	975.8396606445314	649.9327392578127	1117.956420898437	1028.7158203125	645.9923095703127	1254.430053710937	1025.848022460938	647.3242187500002	1192.43603515625	1057.869140625	384.8241882324221	1199.45361328125	990.1555786132814	225.6077880859377	1222.400634765625	974.8809814453126	198.061950683594	1173.650756835938	970.0369873046876	187.5582275390627	1211.831176757812	935.2011718750001	145.795593261719	1213.316284179688	895.7881469726564	106.6326675415041	1230.838989257812	895.7483520507814	69.64756011962913	1180.352905273438	890.9687500000001	67.11201477050803	1212.107666015625	854.6882324218751	21.25512504577659	1244.298095703125	764.3228759765626	-69.29505920410134	1192.963745117188	760.7583007812501	-67.79837036132791	1221.068603515625	708.2402954101564	-96.7573547363279	1429.130004882812	506.8599243164064	160.9363098144534	1404.637939453125	434.3197631835939	177.8533172607424	1420.594116210938	471.1463317871095	208.9954071044924	1423.867309570312	287.3395080566407	270.7694396972659	1412.76318359375	244.7466278076173	204.1792144775393	1410.673706054688	230.4402618408204	251.8202667236331	1304.85986328125	69.8181686401368	109.9937133789065	1308.210205078125	46.42699432373055	323.8101806640627	1411.608276367188	31.31768226623544	278.5459289550784	1009.616149902344	501.4102783203126	135.9069824218752	988.1792602539062	520.6005249023439	210.9499664306642	1009.970825195312	478.6079101562501	193.9962768554689	997.3466186523438	311.5542907714844	259.3225097656252	1007.977478027344	234.6184997558594	270.0851440429689	1011.963134765625	259.6908874511719	227.5869293212893	1126.851928710938	63.56197357177741	114.7496261596682	1104.1484375	46.5992622375489	325.8527526855471	1006.496398925781	39.47439193725592	269.5449218750002	1196.22119140625	870.9689331054689	445.3148498535159	1205.376098632812	757.6737060546876	350.0239562988284	1361.238159179688	945.4248657226564	426.7311706542971	1449.528686523438	797.6979980468751	411.0437927246097	1476.419067382812	738.8230590820314	399.7610473632815	1432.276123046875	736.2681884765626	425.5150146484378	1488.615234375	532.8568725585939	395.4778747558597	1509.476196289062	479.7220153808595	340.6929626464847	1491.411987304688	471.7292785644532	387.1279602050784	1493.7041015625	366.734344482422	388.2205810546878	1420.877197265625	357.168182373047	356.794372558594	1037.468505859375	934.4213867187501	421.8137512207033	958.4124755859374	791.0088500976564	393.5045776367189	965.6109008789061	727.7908325195314	406.0597534179689	924.8658447265624	736.5806884765625	375.1757202148439	921.1308593749999	514.8377685546875	364.4642944335939	925.2509155273436	449.1412963867188	409.5425720214845	918.2188720703124	452.0559692382813	360.5267944335939	920.6658325195311	361.9768066406251	384.2434692382814	992.2637329101561	340.5882568359376	344.1929931640627	
1490	7.445	2227.59521484375	263.6013488769532	368.0166320800785	207.4209594726562	233.1019134521484	336.9943847656251	1182.5703125	974.7194213867189	649.9231567382815	1117.836669921875	1027.568481445312	646.0610961914065	1254.310302734375	1024.732299804688	647.371276855469	1192.31005859375	1056.980834960938	384.8904724121096	1199.368896484375	989.3578491210939	225.6329650878909	1222.334350585938	974.0905151367189	198.0809326171877	1173.570556640625	969.2532958984376	187.5671081542971	1211.775146484375	934.4292602539064	145.7965393066409	1213.288208007812	895.0225830078126	106.6070785522463	1230.79833984375	895.0115966796876	69.63172912597679	1180.319458007812	890.2216796875001	67.08792877197287	1212.095092773438	853.9368286132814	21.22088241577171	1244.302001953125	763.4724121093751	-69.34684753417946	1192.971801757812	759.9086914062501	-67.84364318847635	1221.078491210938	707.3751220703126	-96.78511047363259	1429.185302734375	506.3294677734376	161.1106872558596	1404.708374023438	433.8203125000001	178.1249847412112	1420.690795898438	470.7054138183595	209.1854400634768	1423.897094726562	287.1428527832032	271.0342407226565	1412.804443359375	244.6725311279298	204.3685150146487	1410.694458007812	230.3235778808595	251.9951019287112	1304.852294921875	69.81878662109384	109.9973144531252	1308.205078125	46.42286682128914	323.8099365234377	1411.5947265625	31.30810928344735	278.5469360351565	1009.569396972656	500.8674011230469	136.0865325927736	988.1378784179688	520.1851806640626	211.1011505126955	1009.921264648438	478.1596374511719	194.2140502929689	997.3223876953125	311.4485168457032	259.5489807128908	1007.96435546875	234.4971618652344	270.2599487304689	1011.947265625	259.6170654296876	227.767776489258	1126.872680664062	63.57337570190437	114.7597427368166	1104.15087890625	46.59729385375984	325.8527526855471	1006.502197265625	39.47067260742194	269.548797607422	1196.093505859375	870.0601806640626	445.3394775390627	1205.29052734375	756.8248291015626	349.9513854980471	1361.122924804688	944.5428466796876	426.7796630859377	1449.51318359375	796.8437500000001	410.9900207519534	1476.4326171875	737.9874877929689	399.671325683594	1432.302612304688	735.4023437500001	425.4221801757815	1488.63818359375	532.0145263671876	395.372985839844	1509.50830078125	478.885223388672	340.5720214843753	1491.442993164062	470.8974914550782	387.0135498046878	1493.714721679688	365.9006958007814	388.1139831542972	1420.904052734375	356.3422241210939	356.6939392089847	1037.355834960938	933.4923095703126	421.818572998047	958.3081665039061	790.1062622070314	393.4898376464845	965.4978637695311	726.8857421875001	406.0273437500002	924.7777709960936	735.6630859375	375.1559143066408	921.0223388671874	513.9121704101562	364.3811645507814	925.1884155273436	448.2307128906251	409.4754028320314	918.1446533203124	451.1294860839844	360.4400634765627	920.6507568359374	361.0549316406251	384.163543701172	992.2647094726561	339.6802673339844	344.0995483398439	
1491	7.45	2227.608154296875	262.9025268554689	367.8727722167973	207.426544189453	232.1470642089844	336.9033203125001	1182.44921875	973.6223144531251	649.9087524414065	1117.711547851562	1026.442749023438	646.122985839844	1254.185302734375	1023.636962890625	647.4135742187502	1192.182739257812	1056.107788085938	384.9500122070315	1199.284790039062	988.5704345703126	225.6536712646487	1222.268676757812	973.3105468750001	198.096130371094	1173.491821289062	968.4791870117189	187.5716094970705	1211.719604492188	933.6654663085939	145.7949829101565	1213.26171875	894.2646484375001	106.5791244506838	1230.753540039062	894.2837524414064	69.61371612548851	1180.28369140625	889.4818115234376	67.06176757812521	1212.0810546875	853.1928710937501	21.18340873718284	1244.302001953125	762.6276245117189	-69.39439392089821	1192.977905273438	759.0676879882814	-67.8908233642576	1221.08447265625	706.5171508789064	-96.80992889404274	1429.243408203125	505.8058166503907	161.2762603759768	1404.782592773438	433.3284606933595	178.3886566162112	1420.786499023438	470.2658691406251	209.3742370605471	1423.928955078125	286.9462890625001	271.294128417969	1412.8486328125	244.5965423583985	204.5558166503909	1410.717163085938	230.2059783935548	252.168395996094	1304.844482421875	69.82016754150399	110.0015792846682	1308.199829101562	46.4182434082032	323.8101196289065	1411.580932617188	31.295846939087	278.5487976074222	1009.520751953125	500.3298339843751	136.269973754883	988.0990600585938	519.7734375000001	211.2567596435549	1009.872131347656	477.7148437500001	194.4339447021486	997.2973022460938	311.3402404785157	259.777313232422	1007.954650878906	234.3745269775391	270.4341430664064	1011.930358886719	259.5412597656251	227.9509887695314	1126.892822265625	63.58388519287116	114.7695541381838	1104.1533203125	46.59528350830085	325.8528137207034	1006.508117675781	39.46689987182624	269.5523986816408	1195.96435546875	869.1666259765626	445.3593750000002	1205.204467773438	755.9890136718751	349.8782653808596	1361.0048828125	943.6767578125001	426.8251037597659	1449.489013671875	796.0073852539064	410.9424743652347	1476.437377929688	737.1691284179689	399.6016845703128	1432.321533203125	734.5577392578126	425.3366699218753	1488.660766601562	531.1900634765626	395.2747192382815	1509.53857421875	478.066131591797	340.4558715820315	1491.47265625	470.0826721191407	386.904724121094	1493.7255859375	365.083709716797	388.0129699707034	1420.93310546875	355.5339660644532	356.5998840332034	1037.240356445312	932.5809326171876	421.8177795410158	958.1969604492186	789.2229614257814	393.4741210937502	965.3783569335936	726.0031127929689	405.9999084472658	924.6774291992186	734.7681884765625	375.1393127441408	920.9083862304686	513.0042114257812	364.298309326172	925.1200561523436	447.3391418457032	409.4097290039064	918.0650024414061	450.2208251953126	360.3546447753908	920.6369018554686	360.1505432128907	384.0869140625002	992.2571411132811	338.7943725585938	344.0066223144533	
